PathFileType	4	(X/Y/Z)	output.trc
DataRate	CameraRate	NumFrames	NumMarkers	Units	OrigDataRate	OrigDataStartFrame	OrigNumFrames
100	100	13	23	m	100	2312	6164
Frame#	Time	C7			T8			EL			EM			US			RS			AA			Fore_Clus_1			Fore_Clus_2			Fore_Clus_3			Fore_Clus_4			Hum_Clus_1			Hum_Clus_2			Hum_Clus_3			Hum_Clus_4			Thor_Clus_1			Thor_Clus_2			Thor_Clus_3			Thor_Clus_4			IJ			PX			GH			Thor_Clus_5		
		X1	Y1	Z1	X2	Y2	Z2	X3	Y3	Z3	X4	Y4	Z4	X5	Y5	Z5	X6	Y6	Z6	X7	Y7	Z7	X8	Y8	Z8	X9	Y9	Z9	X10	Y10	Z10	X11	Y11	Z11	X12	Y12	Z12	X13	Y13	Z13	X14	Y14	Z14	X15	Y15	Z15	X16	Y16	Z16	X17	Y17	Z17	X18	Y18	Z18	X19	Y19	Z19	X20	Y20	Z20	X21	Y21	Z21	X22	Y22	Z22	X23	Y23	Z23
2311	23.110000	-0.084626	1.553381	-0.076237	-0.105689	1.317564	-0.163285	-0.324382	1.158236	0.081292	-0.275383	1.137271	0.038181	-0.177655	1.166764	0.296210	-0.122599	1.170100	0.268990	-0.250050	1.474454	0.028069	-0.209647	1.194308	0.252232	-0.177071	1.199081	0.295664	-0.156149	1.205704	0.278447	-0.176194	1.204756	0.224631	-0.287863	1.268023	0.130797	-0.328646	1.273429	0.086889	-0.323500	1.336059	0.074967	-0.277490	1.338788	0.111941	0.034867	1.449231	0.044654	-0.005120	1.394371	0.095200	-0.004196	1.444579	0.066751	0.050440	1.400814	0.062934	-0.019443	1.462560	0.009890	0.022603	1.258358	0.047910	-0.221152	1.439168	0.026843	-0.012278	1.415684	0.086910
2312	23.120000	-0.084674	1.553408	-0.076309	-0.105775	1.317605	-0.163384	-0.324265	1.158212	0.081232	-0.275269	1.137276	0.038104	-0.177562	1.166573	0.296108	-0.122512	1.170121	0.268903	-0.250106	1.474492	0.027995	-0.209659	1.194012	0.252244	-0.177269	1.198427	0.295811	-0.156156	1.205485	0.278492	-0.176235	1.204657	0.224677	-0.287821	1.268013	0.130680	-0.328629	1.273405	0.086808	-0.323524	1.336029	0.074880	-0.277492	1.338773	0.111859	0.034781	1.449398	0.044621	-0.005168	1.394370	0.095106	-0.004240	1.444583	0.066649	0.050391	1.400800	0.062825	-0.019501	1.462567	0.009805	0.022517	1.258355	0.047798	-0.221228	1.439207	0.026741	-0.012344	1.415672	0.086817
2313	23.130000	-0.084731	1.553424	-0.076379	-0.105879	1.317627	-0.163463	-0.324159	1.158187	0.081180	-0.275171	1.137276	0.038029	-0.177494	1.166302	0.296008	-0.122461	1.170195	0.268815	-0.250160	1.474527	0.027943	-0.209711	1.193696	0.252278	-0.177012	1.198787	0.295527	-0.156240	1.205229	0.278553	-0.176310	1.204569	0.224727	-0.287787	1.268000	0.130586	-0.328595	1.273363	0.086734	-0.323532	1.336001	0.074798	-0.277518	1.338780	0.111776	0.034710	1.449407	0.044519	-0.005229	1.394357	0.095019	-0.004288	1.444558	0.066553	0.050312	1.400772	0.062735	-0.019560	1.462570	0.009721	0.022433	1.258349	0.047699	-0.221298	1.439236	0.026634	-0.012393	1.415669	0.086720
2314	23.140000	-0.084788	1.553440	-0.076442	-0.105990	1.317652	-0.163535	-0.324058	1.158159	0.081115	-0.275079	1.137274	0.037942	-0.177445	1.165929	0.295906	-0.122447	1.170335	0.268722	-0.250209	1.474564	0.027908	-0.209798	1.193436	0.252215	-0.177017	1.198425	0.295552	-0.156275	1.205004	0.278580	-0.176400	1.204502	0.224757	-0.287749	1.268032	0.130523	-0.328563	1.273355	0.086642	-0.323542	1.335985	0.074700	-0.277400	1.338953	0.111438	0.034695	1.449400	0.044407	-0.005257	1.394362	0.094930	-0.004277	1.444597	0.066463	0.050275	1.400763	0.062614	-0.019614	1.462571	0.009641	0.022353	1.258342	0.047599	-0.221357	1.439260	0.026540	-0.012444	1.415654	0.086632
2315	23.150000	-0.084855	1.553447	-0.076498	-0.106120	1.317663	-0.163586	-0.323971	1.158127	0.081035	-0.275002	1.137267	0.037839	-0.177427	1.165435	0.295799	-0.122486	1.170531	0.268619	-0.250255	1.474596	0.027903	-0.209970	1.193163	0.251928	-0.177084	1.198107	0.295520	-0.156370	1.204787	0.278598	-0.176536	1.204458	0.224748	-0.287683	1.268057	0.130449	-0.328501	1.273331	0.086566	-0.323510	1.335967	0.074616	-0.277408	1.338964	0.111391	0.034666	1.449408	0.044311	-0.005303	1.394354	0.094851	-0.004165	1.444712	0.066409	0.050208	1.400756	0.062514	-0.019668	1.462567	0.009564	0.022280	1.258331	0.047507	-0.221403	1.439276	0.026454	-0.012476	1.415657	0.086534
2316	23.160000	-0.084927	1.553452	-0.076543	-0.106264	1.317672	-0.163625	-0.323894	1.158089	0.080922	-0.274930	1.137257	0.037707	-0.177436	1.164804	0.295680	-0.122582	1.170788	0.268505	-0.250297	1.474625	0.027925	-0.210164	1.192826	0.251941	-0.177212	1.197728	0.295551	-0.156649	1.204619	0.278505	-0.176757	1.204476	0.224760	-0.287588	1.268066	0.130379	-0.328405	1.273307	0.086506	-0.323479	1.335934	0.074552	-0.277352	1.338974	0.111308	0.034645	1.449408	0.044213	-0.005339	1.394352	0.094755	-0.004166	1.444724	0.066329	0.050158	1.400748	0.062397	-0.019718	1.462561	0.009491	0.022214	1.258318	0.047414	-0.221435	1.439287	0.026390	-0.012500	1.415656	0.086437
2317	23.170000	-0.085004	1.553459	-0.076574	-0.106421	1.317686	-0.163655	-0.323824	1.158042	0.080764	-0.274857	1.137245	0.037535	-0.177471	1.164031	0.295545	-0.122743	1.171112	0.268378	-0.250332	1.474653	0.027975	-0.210470	1.192302	0.251985	-0.177560	1.197223	0.295659	-0.157018	1.204318	0.278671	-0.177211	1.204547	0.224911	-0.287461	1.268022	0.130302	-0.328301	1.273248	0.086454	-0.323428	1.335877	0.074522	-0.277284	1.338944	0.111252	0.034599	1.449385	0.044098	-0.005377	1.394347	0.094679	-0.004426	1.444523	0.066197	0.050110	1.400737	0.062290	-0.019765	1.462554	0.009423	0.022155	1.258304	0.047317	-0.221450	1.439295	0.026354	-0.012512	1.415634	0.086353
2318	23.180000	-0.085091	1.553461	-0.076592	-0.106598	1.317694	-0.163667	-0.323763	1.157986	0.080557	-0.274786	1.137229	0.037320	-0.177535	1.163113	0.295387	-0.122982	1.171497	0.268240	-0.250364	1.474675	0.028060	-0.210952	1.191601	0.252112	-0.178148	1.196492	0.295875	-0.157589	1.204045	0.278917	-0.177939	1.204721	0.225195	-0.287321	1.267935	0.130206	-0.328196	1.273175	0.086383	-0.323353	1.335820	0.074512	-0.277174	1.338868	0.111200	0.034575	1.449358	0.044021	-0.005383	1.394336	0.094596	-0.004481	1.444492	0.066118	0.050107	1.400725	0.062160	-0.019811	1.462545	0.009360	0.022105	1.258287	0.047221	-0.221448	1.439299	0.026343	-0.012514	1.415620	0.086277
2319	23.190000	-0.085179	1.553474	-0.076591	-0.106782	1.317721	-0.163677	-0.323698	1.157918	0.080279	-0.274696	1.137213	0.037047	-0.177616	1.162062	0.295202	-0.123298	1.171962	0.268094	-0.250390	1.474701	0.028169	-0.212090	1.190752	0.253129	-0.178930	1.195637	0.296183	-0.158623	1.203787	0.279444	-0.179060	1.204854	0.225697	-0.287199	1.267799	0.130078	-0.328107	1.273089	0.086280	-0.323291	1.335730	0.074503	-0.277092	1.338752	0.111146	0.034542	1.449349	0.043919	-0.005373	1.394323	0.094543	-0.004487	1.444459	0.066036	0.050079	1.400697	0.062058	-0.019851	1.462538	0.009305	0.022061	1.258270	0.047113	-0.221429	1.439306	0.026373	-0.012499	1.415603	0.086211
2320	23.200000	-0.085275	1.553489	-0.076575	-0.106981	1.317750	-0.163676	-0.323632	1.157837	0.079935	-0.274591	1.137194	0.036717	-0.177715	1.160893	0.294986	-0.123703	1.172501	0.267943	-0.250412	1.474724	0.028307	-0.213021	1.189632	0.253455	-0.180041	1.194393	0.296549	-0.159961	1.203869	0.280037	-0.180376	1.204961	0.226290	-0.287134	1.267654	0.129913	-0.328053	1.272998	0.086121	-0.323231	1.335668	0.074444	-0.277016	1.338620	0.111068	0.034548	1.449321	0.043841	-0.005324	1.394413	0.094572	-0.004465	1.444438	0.065982	0.050076	1.400676	0.061962	-0.019891	1.462532	0.009256	0.022023	1.258252	0.047002	-0.221395	1.439314	0.026432	-0.012488	1.415557	0.086145
2321	23.210000	-0.085372	1.553512	-0.076541	-0.107188	1.317795	-0.163671	-0.323555	1.157741	0.079516	-0.274458	1.137175	0.036324	-0.177822	1.159631	0.294735	-0.124199	1.173127	0.267796	-0.250431	1.474750	0.028468	-0.213952	1.188053	0.253808	-0.181120	1.192861	0.297129	-0.161327	1.203157	0.280849	-0.181998	1.204999	0.227130	-0.287129	1.267491	0.129702	-0.328059	1.272894	0.085886	-0.323211	1.335587	0.074323	-0.277001	1.338475	0.110957	0.034547	1.449308	0.043734	-0.005301	1.394351	0.094483	-0.004469	1.444408	0.065917	0.050065	1.400647	0.061871	-0.019927	1.462528	0.009215	0.021989	1.258235	0.046883	-0.221348	1.439326	0.026528	-0.012461	1.415519	0.086076
2322	23.220000	-0.085469	1.553548	-0.076490	-0.107399	1.317859	-0.163669	-0.323461	1.157630	0.079020	-0.274289	1.137156	0.035869	-0.177930	1.158309	0.294448	-0.124786	1.173848	0.267660	-0.250445	1.474780	0.028644	-0.215044	1.186395	0.254300	-0.182432	1.191208	0.297752	-0.162943	1.202677	0.281708	-0.183738	1.204984	0.228061	-0.287252	1.267306	0.129427	-0.328088	1.272801	0.085536	-0.323245	1.335521	0.074099	-0.277068	1.338333	0.110806	0.034530	1.449255	0.043649	-0.005261	1.394335	0.094453	-0.004435	1.444396	0.065879	0.050065	1.400632	0.061774	-0.019961	1.462529	0.009181	0.021958	1.258219	0.046753	-0.221291	1.439345	0.026660	-0.012430	1.415482	0.086012
2323	23.230000	-0.085572	1.553587	-0.076426	-0.107618	1.317929	-0.163660	-0.323349	1.157501	0.078457	-0.274087	1.137135	0.035358	-0.178038	1.156959	0.294125	-0.125470	1.174657	0.267542	-0.250461	1.474811	0.028836	-0.216226	1.184575	0.254978	-0.183547	1.189427	0.298362	-0.164625	1.201941	0.282537	-0.185961	1.205224	0.229257	-0.287447	1.267114	0.129116	-0.328153	1.272658	0.085149	-0.323305	1.335420	0.073808	-0.277204	1.338189	0.110644	0.034549	1.449265	0.043579	-0.005273	1.394159	0.094217	-0.004421	1.444362	0.065810	0.050075	1.400614	0.061685	-0.019997	1.462531	0.009154	0.021927	1.258203	0.046622	-0.221229	1.439368	0.026814	-0.012414	1.415457	0.085965
